<svg xmlns="http://www.w3.org/2000/svg" version="1.1" xmlns:xlink="http://www.w3.org/1999/xlink" xmlns:svgjs="http://svgjs.dev/svgjs" width="128" height="128" viewBox="0 0 128 128"><g transform="matrix(0.8046875,0,0,0.8046875,12.637167979101648,9.55829967105263)"><svg viewBox="0 0 89 95" data-background-color="#ffffff" preserveAspectRatio="xMidYMid meet" height="136" width="128" xmlns="http://www.w3.org/2000/svg" xmlns:xlink="http://www.w3.org/1999/xlink"><g id="tight-bounds" transform="matrix(1,0,0,1,-0.11852378776744388,-0.24049999999999727)"><svg viewBox="0 0 88.89610344827585 95.481" height="95.481" width="88.89610344827585"><g><svg viewBox="0 0 88.89610344827585 95.481" height="95.481" width="88.89610344827585"><g><svg viewBox="0 0 88.89610344827585 95.481" height="95.481" width="88.89610344827585"><g id="textblocktransform"><svg viewBox="0 0 88.89610344827585 95.481" height="95.481" width="88.89610344827585" id="textblock"><g><svg viewBox="0 0 88.89610344827585 95.481" height="95.481" width="88.89610344827585"><g><svg viewBox="0 0 88.89610344827585 95.481" height="95.481" width="88.89610344827585"><g><svg xmlns="http://www.w3.org/2000/svg" xml:space="preserve" viewBox="6 4 54 58" x="0" y="0" height="95.481" width="88.89610344827585" class="icon-icon-0" data-fill-palette-color="accent" id="icon-0"><path d="M10 12v44h30V12h-3a1 1 0 0 1-1 1H14a1 1 0 0 1-1-1z m14 6h14v2H24z m0 3h13v2H24z m0 10h14v2H24z m0 3h13v2H24z m0 10h14v2H24z m0 3h13v2H24zM13.707 21.293L15 22.586l4.293-4.293 1.414 1.414-5 5a0.997 0.997 0 0 1-1.414 0l-2-2zM35 8h-6a1 1 0 0 1-1-1c0-1.654-1.346-3-3-3s-3 1.346-3 3a1 1 0 0 1-1 1h-6v3h20z" fill="#caffb9" data-fill-palette-color="accent"></path><path d="M44 8h-7v2h4a1 1 0 0 1 1 1v46a1 1 0 0 1-1 1H9a1 1 0 0 1-1-1V11a1 1 0 0 1 1-1h4V8H6v52h38zM59 11h-2v-1h-2v1h-2a1 1 0 0 0-1 1v1h-2a1 1 0 0 0-1 1v21h2V15h1v38q0 0.206 0.081 0.394L55 60.204V62h2v-1.796l2.919-6.811A1 1 0 0 0 60 53V12a1 1 0 0 0-1-1m-1 41.795l-2 4.666-2-4.666V39h4z" fill="#caffb9" data-fill-palette-color="accent"></path></svg></g></svg></g></svg></g></svg></g></svg></g></svg></g><defs></defs></svg><rect width="88.89610344827585" height="95.481" fill="none" stroke="none" visibility="hidden"></rect></g></svg></g></svg>